<svg width="60" height="61" viewBox="0 0 60 61" fill="none" xmlns="http://www.w3.org/2000/svg">
<g clip-path="url(#clip0_1_809)">
<g clip-path="url(#clip1_1_809)">
<path d="M7.59204 33.8914C5.78 30.3839 4.22943 26.0546 5.61028 22.929C7.03027 19.8084 11.3368 17.9254 15.1003 16.0736C18.8864 14.2048 22.068 12.379 25.4332 11.8684C28.8151 11.3797 32.3582 12.2231 36.0006 13.3374C39.6655 14.4347 43.424 15.8418 46.455 18.3897C49.5251 20.9425 51.9069 24.641 52.4296 28.6421C52.9356 32.6213 51.5658 36.8812 49.3052 40.2935C47.0053 43.701 43.7586 46.234 40.4888 48.9232C37.2581 51.6172 33.9876 54.4453 30.455 54.8753C26.9447 55.2882 23.1782 53.2639 20.3481 50.8407C17.4787 48.4126 15.5515 45.5464 13.5287 42.7875C11.5059 40.0286 9.40409 37.3989 7.59204 33.8914Z" fill="#E6F2F7"/>
<path d="M44.7785 26.9782L43.2268 28.5299L44.0802 30.5471C44.4682 31.4006 44.0026 32.4092 43.1492 32.7971L41.132 33.6506V35.823C41.132 36.754 40.3561 37.5299 39.4251 37.5299H37.2526L36.3992 39.5471C36.0113 40.4006 35.0026 40.8661 34.1492 40.4782H33.994L32.0544 39.7023L30.5026 41.254C30.3475 41.4092 30.1147 41.5644 29.882 41.642H28.7957C28.563 41.5644 28.2526 41.4092 28.0975 41.254L26.5457 39.7023L24.6061 40.4782L24.4509 40.5557C23.5975 40.9437 22.5888 40.4782 22.2009 39.6247L21.3475 37.6075H19.2526C18.3216 37.6075 17.5457 36.8316 17.5457 35.9006V33.7282L15.5285 32.8747C14.6751 32.4868 14.2095 31.4782 14.5975 30.6247L15.4509 28.6075L13.8992 27.0557C13.2009 26.3575 13.2009 25.2713 13.8992 24.6506L15.4509 23.0989L14.5975 20.9264C14.2095 20.073 14.6751 19.0644 15.5285 18.6764L17.5457 17.823V15.6506C17.5457 14.7195 18.3216 13.9437 19.2526 13.9437H21.4251L22.2785 11.9264C22.6664 11.073 23.6751 10.6075 24.5285 10.9954L26.5457 11.8488L28.0975 10.2971C28.7957 9.59887 29.882 9.59887 30.5026 10.2971L32.0544 11.8488L34.0716 10.9954C34.9251 10.6075 35.9337 11.073 36.3216 11.9264L37.1751 13.9437H39.4251C40.3561 13.9437 41.132 14.7195 41.132 15.6506V17.9006L43.1492 18.754C44.0026 19.142 44.4682 20.1506 44.0802 21.004L43.2268 23.0213L44.7785 24.573C45.4768 25.1937 45.4768 26.2799 44.7785 26.9782Z" stroke="black" stroke-width="1.03448" stroke-miterlimit="10" stroke-linecap="round" stroke-linejoin="round"/>
<path d="M28.7974 41.6419L22.3578 53.9781L20.9612 47.2281L13.9009 49.5557L20.1854 37.6074H21.4267L22.2802 39.6247C22.6681 40.4781 23.6767 40.9436 24.5302 40.5557L24.6854 40.4781L26.625 39.7023L28.1767 41.254C28.3319 41.4091 28.5647 41.5643 28.7974 41.6419Z" stroke="black" stroke-width="1.03448" stroke-miterlimit="10" stroke-linecap="round" stroke-linejoin="round"/>
<path d="M44.9345 49.479L37.8742 47.1515L36.4776 53.9015L29.8828 41.5652C30.1156 41.4877 30.2707 41.3325 30.5035 41.1773L32.0552 39.6256L33.9949 40.4014L34.1501 40.479C35.0035 40.867 36.0121 40.4015 36.4001 39.548L37.2535 37.5308H38.6501L44.9345 49.479Z" stroke="black" stroke-width="1.03448" stroke-miterlimit="10" stroke-linecap="round" stroke-linejoin="round"/>
<path d="M48.7339 21.4698L52.1477 19.6069" stroke="black" stroke-width="1.03448" stroke-miterlimit="10" stroke-linecap="round" stroke-linejoin="round"/>
<path d="M48.7339 25.5029H53.6218" stroke="black" stroke-width="1.03448" stroke-miterlimit="10" stroke-linecap="round" stroke-linejoin="round"/>
<path d="M48.7339 29.6167L52.1477 31.4796" stroke="black" stroke-width="1.03448" stroke-miterlimit="10" stroke-linecap="round" stroke-linejoin="round"/>
<path d="M9.94407 29.6147L6.53027 31.4775" stroke="black" stroke-width="1.03448" stroke-miterlimit="10" stroke-linecap="round" stroke-linejoin="round"/>
<path d="M9.94242 25.5029H5.13208" stroke="black" stroke-width="1.03448" stroke-miterlimit="10" stroke-linecap="round" stroke-linejoin="round"/>
<path d="M9.94407 21.4698L6.53027 19.6069" stroke="black" stroke-width="1.03448" stroke-miterlimit="10" stroke-linecap="round" stroke-linejoin="round"/>
<path d="M24.6821 26.2807L27.3976 28.9962L33.9925 22.4014" stroke="black" stroke-width="1.03448" stroke-miterlimit="10" stroke-linecap="round" stroke-linejoin="round"/>
<path d="M29.3374 35.8233C34.9079 35.8233 39.4236 31.3076 39.4236 25.7371C39.4236 20.1666 34.9079 15.6509 29.3374 15.6509C23.7669 15.6509 19.2512 20.1666 19.2512 25.7371C19.2512 31.3076 23.7669 35.8233 29.3374 35.8233Z" stroke="black" stroke-width="1.03448" stroke-miterlimit="10" stroke-linecap="round" stroke-linejoin="round"/>
</g>
</g>
<defs>
<clipPath id="clip0_1_809">
<rect width="60" height="60" fill="white" transform="translate(0 0.646973)"/>
</clipPath>
<clipPath id="clip1_1_809">
<rect width="60" height="60" fill="white" transform="translate(0 0.646973)"/>
</clipPath>
</defs>
</svg>
