<svg width="60" height="61" viewBox="0 0 60 61" fill="none" xmlns="http://www.w3.org/2000/svg">
<g clip-path="url(#clip0_1_799)">
<g clip-path="url(#clip1_1_799)">
<g clip-path="url(#clip2_1_799)">
<path d="M30 46.897C38.9746 46.897 46.25 39.6216 46.25 30.647C46.25 21.6723 38.9746 14.397 30 14.397C21.0254 14.397 13.75 21.6723 13.75 30.647C13.75 39.6216 21.0254 46.897 30 46.897Z" fill="#E6F2F7"/>
<path d="M30.001 47.1479C38.8547 47.1479 46.0322 39.9704 46.0322 31.1167C46.0322 22.2628 38.8547 15.0854 30.001 15.0854C21.1471 15.0854 13.9697 22.2628 13.9697 31.1167C13.9697 39.9704 21.1471 47.1479 30.001 47.1479Z" stroke="#000815" stroke-width="1.25" stroke-miterlimit="10" stroke-linecap="round" stroke-linejoin="round"/>
<path d="M33.5635 35.0532C33.2822 35.522 32.9072 35.8032 32.3447 36.0845C31.7822 36.3657 31.2197 36.4595 30.4697 36.5532V37.6782C30.4697 37.772 30.4697 37.9595 30.376 37.9595C30.2822 38.0532 30.1885 38.0532 30.001 38.0532C29.9072 38.0532 29.7197 38.0532 29.7197 37.9595C29.626 37.8657 29.626 37.772 29.626 37.5845V36.4595C28.501 36.3657 27.4697 36.1782 26.5322 35.7095C26.4385 35.6157 26.3447 35.6157 26.251 35.4282C26.1572 35.3345 26.1572 35.147 26.1572 35.0532C26.1572 34.8657 26.251 34.772 26.3447 34.5845C26.4385 34.4907 26.626 34.397 26.8135 34.397C26.9072 34.397 27.001 34.397 27.0947 34.4907C27.9385 34.8657 28.7822 35.0532 29.7197 35.0532V31.5845C29.0635 31.397 28.4072 31.2095 27.9385 31.022C27.4697 30.8345 27.0947 30.5532 26.7197 30.0845C26.4385 29.7095 26.251 29.2407 26.251 28.5845C26.251 28.022 26.3447 27.5532 26.626 27.0845C26.9072 26.6157 27.2822 26.2407 27.751 25.9595C28.2197 25.6782 28.876 25.4907 29.626 25.397V24.3657C29.626 24.272 29.626 24.0845 29.7197 23.9907C29.8135 23.897 29.9072 23.897 30.001 23.897C30.0947 23.897 30.2822 23.897 30.376 23.9907C30.4697 24.0845 30.4697 24.1782 30.4697 24.3657V25.397C31.501 25.397 32.3447 25.5845 33.0947 25.8657C33.376 25.9595 33.5635 26.147 33.5635 26.4282C33.5635 26.6157 33.4697 26.7095 33.376 26.897C33.2822 26.9907 33.0947 27.0845 32.9072 27.0845C32.8135 27.0845 32.7197 27.0845 32.626 26.9907C31.9697 26.7095 31.2197 26.6157 30.376 26.6157V30.272C31.126 30.4595 31.6885 30.647 32.1572 30.8345C32.626 31.022 33.001 31.3032 33.376 31.772C33.6572 32.147 33.8447 32.7095 33.8447 33.3657C33.9385 34.1157 33.8447 34.5845 33.5635 35.0532ZM28.0322 29.7095C28.4072 29.9907 28.876 30.1782 29.5322 30.3657V26.9907C28.9697 27.0845 28.4072 27.272 28.0322 27.5532C27.6572 27.8345 27.4697 28.2095 27.4697 28.6782C27.5635 29.147 27.6572 29.4282 28.0322 29.7095ZM32.626 33.5532C32.626 33.1782 32.4385 32.897 32.0635 32.6157C31.6885 32.4282 31.126 32.147 30.4697 31.9595V35.2407C31.876 35.147 32.626 34.5845 32.626 33.5532Z" fill="#000815"/>
<path d="M35.5332 49.9585H48.2832V45.7397L58.5957 52.6772L48.2832 59.7085V55.396H32.1582" stroke="#000815" stroke-width="1.25" stroke-miterlimit="10" stroke-linecap="round" stroke-linejoin="round"/>
<path d="M24.4688 11.3345H11.7188V15.5532L1.40625 8.61572L11.7188 1.58447V5.89697H27.8437" stroke="#000815" stroke-width="1.25" stroke-miterlimit="10" stroke-linecap="round" stroke-linejoin="round"/>
</g>
</g>
</g>
<defs>
<clipPath id="clip0_1_799">
<rect width="60" height="60" fill="white" transform="translate(0 0.646973)"/>
</clipPath>
<clipPath id="clip1_1_799">
<rect width="60" height="60" fill="white" transform="translate(0 0.646973)"/>
</clipPath>
<clipPath id="clip2_1_799">
<rect width="60" height="60" fill="white" transform="translate(0 0.646973)"/>
</clipPath>
</defs>
</svg>
