<svg width="60" height="61" viewBox="0 0 60 61" fill="none" xmlns="http://www.w3.org/2000/svg">
<g clip-path="url(#clip0_1_765)">
<g clip-path="url(#clip1_1_765)">
<path d="M46.8614 32.817C44.449 39.8952 41.8307 45.5943 32.9797 47.8734C24.1287 50.1525 9.04502 49.0115 6.12913 42.2214C3.18457 35.4741 12.4511 23.1065 22.4124 16.5415C32.3883 10.0483 43.059 9.35762 47.2911 13.2409C51.4944 17.167 49.3025 25.696 46.8614 32.817Z" fill="#E6F2F7"/>
<mask id="mask0_1_765" style="mask-type:luminance" maskUnits="userSpaceOnUse" x="5" y="9" width="45" height="45">
<path d="M49.5631 9.81934H5.92676V53.4557H49.5631V9.81934Z" fill="white"/>
</mask>
<g mask="url(#mask0_1_765)">
<path d="M18.8132 44.7283C11.7223 42.4782 6.60864 35.8646 6.60864 28.0237C6.60864 26.7282 6.74501 25.501 7.01773 24.3419C8.31319 18.3419 12.6086 13.5692 18.1995 11.5237C20.0404 10.8419 22.0177 10.501 24.1313 10.501C28.1541 10.501 31.9041 11.8646 34.8359 14.1828C36.6768 15.5464 38.1768 17.3192 39.3359 19.2964C40.8359 21.8873 41.6541 24.8192 41.6541 28.0237C41.6541 28.501 41.6541 28.9101 41.5859 29.3873" stroke="#000815" stroke-width="0.909091" stroke-miterlimit="10" stroke-linecap="round" stroke-linejoin="round"/>
<path d="M19.6306 13.0244C19.767 13.1608 19.9033 13.3653 19.9715 13.5699C19.8351 13.3653 19.6988 13.1608 19.6306 13.0244Z" stroke="#000815" stroke-width="0.909091" stroke-miterlimit="10" stroke-linecap="round" stroke-linejoin="round"/>
<path d="M19.6314 12.9554L19.5632 12.8872C19.5632 12.8872 19.5632 12.8872 19.6314 12.9554ZM19.6314 12.9554C19.5632 12.8872 19.5632 12.9554 19.6314 12.9554Z" stroke="#000815" stroke-width="0.909091" stroke-miterlimit="10" stroke-linecap="round" stroke-linejoin="round"/>
<path d="M20.1065 13.7061C20.3792 14.5242 20.2429 15.547 20.0383 16.4333C20.8565 15.8197 21.7429 15.2061 22.6974 15.1379C23.7202 15.0697 24.8792 15.6833 24.9474 16.7061C25.0156 17.2515 24.6747 17.797 24.8111 18.3424C24.9474 18.8197 25.3565 19.0924 25.6292 19.4333C25.9702 19.7742 26.1747 20.2515 25.9702 20.6606C25.4929 21.4788 23.8565 20.797 23.4474 21.6833C23.2429 22.1606 23.5838 22.7061 24.0611 22.9788C24.4702 23.2515 24.9474 23.5924 25.0838 24.0697C25.2883 24.8197 24.4702 25.5015 23.652 25.5015C22.8338 25.5015 22.152 25.0924 21.4702 24.7515C20.5838 24.3424 19.6292 24.0697 18.6065 24.0697C17.652 24.1379 16.6292 24.547 16.0838 25.3651C15.3338 26.4561 15.4702 27.8879 15.3338 29.2515C15.1974 30.6151 14.5838 32.1151 13.2883 32.3197C12.1974 32.4561 11.2429 31.5697 10.8338 30.547C10.4247 29.5242 10.4247 28.4333 10.2883 27.3424C10.152 26.6606 9.94742 25.9106 9.53833 25.3651" stroke="#000815" stroke-width="0.909091" stroke-miterlimit="10" stroke-linecap="round" stroke-linejoin="round"/>
<path d="M21.811 28.6367C21.8792 28.6367 21.8792 29.114 21.811 29.5231" stroke="#000815" stroke-width="0.909091" stroke-miterlimit="10" stroke-linecap="round" stroke-linejoin="round"/>
<path d="M21.811 28.6365C22.4929 28.5002 23.1747 28.7729 23.6519 29.182" stroke="#000815" stroke-width="0.909091" stroke-miterlimit="10" stroke-linecap="round" stroke-linejoin="round"/>
<path d="M35.3145 29.183C35.3827 28.7739 35.2463 28.433 34.9736 28.1603C34.5645 27.8194 33.9508 27.8876 33.4736 27.683C32.7236 27.2739 32.6554 26.0467 33.3372 25.433C33.9508 24.8194 35.0418 24.8194 35.7918 25.2285C36.6099 25.6376 37.1554 26.3194 37.7008 27.0012C38.1099 27.6148 38.519 28.2967 39.0645 28.8421" stroke="#000815" stroke-width="0.909091" stroke-miterlimit="10" stroke-linecap="round" stroke-linejoin="round"/>
<path d="M32.4495 15.6821C32.3814 15.8867 32.245 16.0912 32.245 16.3639C32.1086 16.9776 32.1768 17.6594 32.245 18.273C32.3132 18.7503 32.3814 19.2958 32.7904 19.5685C33.3359 19.9094 34.1541 19.5003 34.8359 19.7049C35.5177 19.9094 35.8586 20.7958 36.5404 21.0685C36.8132 21.1367 37.0177 21.1367 37.2904 21.0685" stroke="#000815" stroke-width="0.909091" stroke-miterlimit="10" stroke-linecap="round" stroke-linejoin="round"/>
<path d="M48.8806 42.1375V49.5012C48.8806 50.183 48.3351 50.7966 47.5851 50.7966H46.2897C46.2897 50.7284 46.2897 50.5921 46.2897 50.5239C46.2897 49.2284 45.2669 48.2057 43.9715 48.2057C42.676 48.2057 41.6533 49.2284 41.6533 50.5239V50.7966H29.6533C29.6533 50.7284 29.6533 50.5921 29.6533 50.5239C29.6533 49.2284 28.6306 48.2057 27.3351 48.2057C26.0397 48.2057 25.0169 49.2284 25.0169 50.5239V50.7966H22.6306C21.9488 50.7966 21.3352 50.2512 21.3352 49.5012V46.7057H41.9942V37.5693H44.176C44.6533 37.5693 45.1988 37.7739 45.5397 38.1148L48.1988 40.7739C48.676 41.183 48.8806 41.6602 48.8806 42.1375Z" stroke="#000815" stroke-width="0.909091" stroke-miterlimit="10" stroke-linecap="round" stroke-linejoin="round"/>
<path d="M42.1293 33.7509V46.7054H21.4702V33.7509C21.4702 32.7282 22.2884 31.8418 23.3793 31.8418H40.2202C41.3111 31.8418 42.1293 32.66 42.1293 33.7509Z" stroke="#000815" stroke-width="0.909091" stroke-miterlimit="10" stroke-linecap="round" stroke-linejoin="round"/>
<path d="M27.4034 52.7741C28.6837 52.7741 29.7216 51.7362 29.7216 50.4559C29.7216 49.1756 28.6837 48.1377 27.4034 48.1377C26.123 48.1377 25.0852 49.1756 25.0852 50.4559C25.0852 51.7362 26.123 52.7741 27.4034 52.7741Z" stroke="#000815" stroke-width="0.909091" stroke-miterlimit="10" stroke-linecap="round" stroke-linejoin="round"/>
<path d="M44.108 52.7741C45.3882 52.7741 46.4262 51.7362 46.4262 50.4559C46.4262 49.1756 45.3882 48.1377 44.108 48.1377C42.8276 48.1377 41.7898 49.1756 41.7898 50.4559C41.7898 51.7362 42.8276 52.7741 44.108 52.7741Z" stroke="#000815" stroke-width="0.909091" stroke-miterlimit="10" stroke-linecap="round" stroke-linejoin="round"/>
</g>
</g>
</g>
<defs>
<clipPath id="clip0_1_765">
<rect width="60" height="60" fill="white" transform="translate(0 0.646973)"/>
</clipPath>
<clipPath id="clip1_1_765">
<rect width="60" height="60" fill="white" transform="translate(0 0.646973)"/>
</clipPath>
</defs>
</svg>
