<svg width="60" height="61" viewBox="0 0 60 61" fill="none" xmlns="http://www.w3.org/2000/svg">
<g clip-path="url(#clip0_1_825)">
<g clip-path="url(#clip1_1_825)">
<path d="M13.75 34.397H1.25V55.647H13.75V34.397Z" fill="#E6F2F7"/>
<path d="M44.4125 52.0171C43.1246 52.4092 41.7627 51.6832 41.3706 50.3953L40.7101 48.2263C40.318 46.9385 41.044 45.5766 42.3319 45.1845L54.043 41.6182C55.9297 41.0437 57.925 42.1075 58.4996 43.9942C59.0741 45.8811 58.0104 47.8763 56.1236 48.4508L44.4125 52.0171Z" fill="#E6F2F7"/>
<path d="M40 33.147C47.5939 33.147 53.75 26.9908 53.75 19.397C53.75 11.8031 47.5939 5.64697 40 5.64697C32.4061 5.64697 26.25 11.8031 26.25 19.397C26.25 26.9908 32.4061 33.147 40 33.147Z" fill="#E6F2F7"/>
<path d="M40.5258 23.5937H36.4675C36.0778 23.5937 35.7617 23.9098 35.7617 24.2995C35.7617 24.6892 36.0778 25.0053 36.4675 25.0053H39.1271V26.962C39.1271 27.3516 39.4432 27.6677 39.8328 27.6677C40.2226 27.6677 40.5387 27.3516 40.5387 26.962V25.0041C42.3972 24.997 43.9077 23.4837 43.9077 21.623C43.9077 19.7578 42.3905 18.2406 40.5258 18.2406H39.1447C38.0575 18.2406 37.1735 17.3565 37.1735 16.2698C37.1735 15.1832 38.0575 14.2991 39.1447 14.2991C39.4503 14.2991 43.3182 14.2991 43.2021 14.2991C43.5917 14.2991 43.9078 13.983 43.9078 13.5932C43.9078 13.2036 43.5917 12.8875 43.2021 12.8875H40.5388V10.9304C40.5388 10.5408 40.2227 10.2246 39.833 10.2246C39.4433 10.2246 39.1272 10.5408 39.1272 10.9304V12.8892C37.2698 12.8989 35.7618 14.4107 35.7618 16.2698C35.7618 18.135 37.2791 19.6522 39.1447 19.6522H40.526C41.6122 19.6522 42.4962 20.5363 42.4962 21.623C42.4962 22.7096 41.6121 23.5937 40.5258 23.5937Z" fill="#000815"/>
<path d="M59.2343 42.6335C58.3184 41.2156 56.6259 40.5759 55.051 40.9397L40.03 44.0276C40.3781 43.4309 40.5419 42.7365 40.5419 42.1307C40.5415 40.0481 38.847 38.3537 36.7639 38.3537C31.2586 38.197 29.4492 38.784 27.5651 37.6001C22.8816 35.4146 18.4465 35.2629 14.0421 37.1385V34.534C14.0421 34.1444 13.7259 33.8281 13.3362 33.8281H0.827891C0.438243 33.8281 0.12207 34.1444 0.12207 34.534V55.976C0.12207 56.3656 0.438243 56.6819 0.827891 56.6819H13.3364C13.726 56.6819 14.0421 56.3656 14.0421 55.976V53.1749L31.9391 55.8781C36.0138 56.4909 40.1778 55.9531 43.9708 54.3007L57.5001 48.4122C59.7499 47.4359 60.5718 44.6782 59.2343 42.6335ZM1.53371 55.2701V35.2397H12.6305C12.6305 39.1871 12.6254 34.2029 12.6305 55.2701H1.53371ZM56.9378 47.1178L43.4074 53.0067C39.8702 54.5482 35.9774 55.0582 32.1491 54.4821L14.0421 51.7472V38.6811C18.2452 36.7177 22.4745 36.783 26.8879 38.8349C29.1411 40.2715 31.5756 39.5831 36.7639 39.7654C38.0688 39.7654 39.1301 40.8261 39.1302 42.1306C39.1301 43.4342 38.0697 44.4945 36.7666 44.4945H26.1646C25.775 44.4945 25.4589 44.8107 25.4589 45.2004C25.4589 45.59 25.775 45.9062 26.1646 45.9062C27.3564 45.9064 21.8476 45.9054 37.8198 45.9085C37.9576 45.9085 37.0015 46.0864 55.3524 42.3195C56.401 42.0755 57.4818 42.5216 58.0505 43.4034C58.9128 44.7196 58.3853 46.4895 56.9378 47.1178Z" fill="#000815"/>
<path d="M39.8314 33.2808C47.7375 33.2808 54.1695 26.8525 54.1695 18.9505C54.1695 11.0442 47.7374 4.61182 39.8314 4.61182C31.9294 4.61182 25.5005 11.0444 25.5005 18.9505C25.5005 26.8525 31.9292 33.2808 39.8314 33.2808ZM39.8314 6.02345C46.959 6.02345 52.758 11.8224 52.758 18.9505C52.758 26.0741 46.959 31.8692 39.8314 31.8692C32.7072 31.8692 26.9121 26.0741 26.9121 18.9505C26.912 11.8222 32.7072 6.02345 39.8314 6.02345Z" fill="#000815"/>
</g>
</g>
<defs>
<clipPath id="clip0_1_825">
<rect width="60" height="60" fill="white" transform="translate(0 0.646973)"/>
</clipPath>
<clipPath id="clip1_1_825">
<rect width="60" height="60" fill="white" transform="translate(0 0.646973)"/>
</clipPath>
</defs>
</svg>
