<svg width="60" height="61" viewBox="0 0 60 61" fill="none" xmlns="http://www.w3.org/2000/svg">
<g clip-path="url(#clip0_1_836)">
<g clip-path="url(#clip1_1_836)">
<g clip-path="url(#clip2_1_836)">
<path d="M49.2167 16.6787C51.1527 19.9722 52.176 24.2229 51.1451 28.2719C50.0695 32.3027 46.9583 36.0862 41.6911 41.0635C36.3792 46.0225 28.9113 52.1754 21.3786 51.8615C13.8645 51.5022 6.28573 44.6762 6.86524 37.7814C7.44475 30.8865 16.1566 23.8587 21.5911 19.1096C27.0257 14.3603 29.2461 11.8623 32.0424 10.5048C34.8201 9.19278 38.2369 8.99379 41.3474 10.0533C44.4766 11.0672 47.2807 13.3853 49.2167 16.6787Z" fill="#E6F2F7"/>
<path d="M41.0445 17.1146C46.3022 11.8568 46.0874 3.30739 46.0761 2.94617C46.0649 2.62176 45.805 2.36117 45.4803 2.35074C45.117 2.34112 36.5647 2.12093 31.3077 7.37836C28.6278 10.0582 27.371 13.59 26.7828 16.4603C26.2596 14.6735 25.3631 12.729 23.8061 11.1721C19.9478 7.31372 13.6908 7.47338 13.4253 7.48053C13.1013 7.49096 12.8407 7.75156 12.8295 8.07556C12.8215 8.34065 12.6611 14.6024 16.5186 18.4595C22.2327 24.175 35.2597 22.899 41.0445 17.1146ZM32.1787 8.24921C36.2896 4.13785 42.8385 3.63948 44.8403 3.58609C44.7857 5.58747 44.2845 12.1332 40.1736 16.2437C36.0578 20.3586 29.5121 20.8607 27.5112 20.9155C27.5649 18.9135 28.0637 12.3641 32.1787 8.24921ZM17.3895 17.5887C14.5698 14.7689 14.1335 10.3264 14.0702 8.71998C15.6749 8.78257 20.1082 9.21681 22.9351 12.043C25.7565 14.8646 26.1961 19.3048 26.2601 20.9112C24.653 20.8479 20.2108 20.4099 17.3895 17.5887Z" fill="black"/>
<path d="M52.3152 11.759C51.1341 11.9462 50.2541 12.8569 50.0416 13.9569L47.9373 23.6082C47.6942 23.3452 47.3983 23.1323 47.0606 22.9827C45.7167 22.3881 44.1504 22.994 43.5568 24.3337L41.8775 28.1202C41.5727 28.8066 41.1845 29.31 40.6617 29.6637C36.2216 33.5149 35.6595 38.2942 35.7393 41.7723H33.9227C33.5821 41.7723 33.3068 42.049 33.3068 42.3881V50.6955C33.3068 51.0356 33.5827 51.3113 33.9227 51.3113H48.1625C48.5026 51.3113 48.7785 51.0354 48.7785 50.6955V42.3886C48.7785 42.0485 48.5026 41.7728 48.1625 41.7728H47.0045L53.1557 32.1202C54.6449 29.7789 55.4421 27.079 55.4606 24.3134L55.528 14.5149C55.5431 12.798 54.0111 11.4825 52.3152 11.759ZM47.5466 50.0794H34.5386V43.004L47.5466 43.0044V50.0794ZM54.2288 24.3047C54.2119 26.839 53.4814 29.313 52.1163 31.4588L45.5441 41.7721H36.971C36.8853 38.334 37.4297 34.0968 41.406 30.6419C42.0645 30.204 42.6026 29.5239 43.0035 28.6197L44.6829 24.8328C45.0035 24.1098 45.8472 23.7926 46.5619 24.1085C47.2789 24.4273 47.6045 25.2629 47.2877 25.9844L47.2861 25.9871C46.5221 27.7043 45.4438 31.4195 42.4742 34.3317C42.2313 34.5698 42.2281 34.96 42.4663 35.2026C42.703 35.4449 43.0927 35.4502 43.3372 35.2114C48.6807 29.9701 49.4913 22.2482 51.248 14.2061C51.3791 13.5389 51.8941 13.0727 52.5086 12.9755C52.5095 12.9755 52.5103 12.975 52.5118 12.975C53.4509 12.8213 54.3047 13.5455 54.2962 14.5048L54.2288 24.3047Z" fill="black"/>
<path d="M24.9854 41.7715H23.1686C23.2474 38.2928 22.6814 33.5099 18.1837 29.6147C17.7218 29.3087 17.3344 28.8059 17.0305 28.1194L15.3512 24.3328C14.7568 22.9943 13.1842 22.3905 11.8458 22.982C11.5042 23.1339 11.2099 23.3492 10.9717 23.6087L8.86967 13.9689C8.64098 12.8054 7.72953 11.9385 6.59288 11.7583C4.88001 11.4839 3.36596 12.8094 3.37936 14.5131L3.44758 24.3121C3.46599 27.0793 4.2632 29.7792 5.75249 32.1196L11.9037 41.7718H10.7457C10.4056 41.7718 10.1298 42.0477 10.1298 42.3876V50.6946C10.1298 51.0346 10.4056 51.3105 10.7457 51.3105H24.9855C25.3256 51.3105 25.6014 51.0345 25.6014 50.6946V42.3873C25.6012 42.0482 25.326 41.7715 24.9854 41.7715ZM4.67935 24.3037L4.61113 14.504C4.60438 13.5486 5.4557 12.8185 6.39549 12.9745L6.39865 12.975C7.00288 13.0705 7.52264 13.5208 7.66336 14.2184C9.61012 22.672 10.2971 30.0381 15.5709 35.2108C15.8152 35.4494 16.2049 35.4446 16.4419 35.2021C16.68 34.9595 16.6768 34.5693 16.4339 34.3311C13.4692 31.4242 12.1344 27.1383 11.6212 25.9874C11.3037 25.2697 11.6285 24.4263 12.3454 24.1079C13.0623 23.7908 13.9061 24.1148 14.2252 24.8326L15.9046 28.6187C16.3048 29.5228 16.8421 30.2034 17.4396 30.5931C21.4736 34.0922 22.0222 38.3327 21.9371 41.7715H13.3639L6.79179 31.4581C5.42676 29.3132 4.69622 26.8395 4.67935 24.3037ZM24.3694 50.0787H11.3614V43.0038L24.3695 43.0033L24.3694 50.0787Z" fill="black"/>
</g>
</g>
</g>
<defs>
<clipPath id="clip0_1_836">
<rect width="60" height="60" fill="white" transform="translate(0 0.646973)"/>
</clipPath>
<clipPath id="clip1_1_836">
<rect width="60" height="60" fill="white" transform="translate(0 0.646973)"/>
</clipPath>
<clipPath id="clip2_1_836">
<rect width="53.4545" height="60" fill="white" transform="translate(3.27271 0.646973)"/>
</clipPath>
</defs>
</svg>
