<svg width="60" height="60" viewBox="0 0 60 60" fill="none" xmlns="http://www.w3.org/2000/svg">
<g clip-path="url(#clip0_1_787)">
<g clip-path="url(#clip1_1_787)">
<path d="M36.6873 6.89538C40.1999 8.52436 42.4719 12.713 45.3757 16.2958C48.3097 19.8664 51.8752 22.831 54.003 27.183C56.1129 31.5771 56.785 37.3585 54.3357 41.1772C51.8986 45.0258 46.3099 46.9239 41.2542 47.6302C36.2286 48.324 31.6759 47.8504 26.8205 47.1523C21.9953 46.4419 16.8617 45.5789 12.3728 42.6778C7.92631 39.7943 6.09781 35.037 7.01806 30.659C7.93831 26.2811 11.5771 22.2948 15.5114 18.4965C19.4033 14.6807 21.557 10.913 25.0256 8.55764C28.4638 6.21461 33.1746 5.26639 36.6873 6.89538Z" fill="#E6F2F7"/>
<path d="M19.2966 17.2382V12.846C19.2966 6.98965 24.0793 2.10938 30.0332 2.10938H31.8877C37.7441 2.10938 42.6243 6.89205 42.6243 12.846V17.2382" stroke="black" stroke-width="1.01672" stroke-miterlimit="10"/>
<path d="M50.0436 44.4697C50.0436 45.3481 49.946 46.2266 49.8484 47.105H11.9774C11.8798 46.2266 11.7822 45.3481 11.7822 44.4697C11.7822 35.6852 17.6386 32.1714 25.6422 31.1953L30.9129 36.7588L36.1836 31.1953C44.1873 32.1714 50.0436 35.6852 50.0436 44.4697Z" stroke="black" stroke-width="1.01672" stroke-miterlimit="10" stroke-linecap="round" stroke-linejoin="round"/>
<path d="M36.1845 31.1942L30.9138 36.7578L25.6431 31.1942L27.1071 26.314C28.2784 26.9972 29.5473 27.29 30.9138 27.29C32.2802 27.29 33.6467 26.8996 34.7204 26.314L36.1845 31.1942Z" stroke="black" stroke-width="1.01672" stroke-miterlimit="10"/>
<path d="M38.8221 14.6034V19.386C38.8221 23.7783 35.3083 27.2921 30.9161 27.2921C26.5238 27.2921 23.01 23.7783 23.01 19.386V14.6034C25.5478 14.5058 27.8903 13.3345 29.452 11.48C30.9161 13.3345 34.0394 14.6034 37.6508 14.6034H38.8221Z" stroke="black" stroke-width="1.01672" stroke-miterlimit="10"/>
<path d="M44.8689 20.3617H42.5264V13.627H44.8689C45.6497 13.627 46.2354 14.2126 46.2354 14.9934V18.8976C46.333 19.6785 45.6497 20.3617 44.8689 20.3617Z" stroke="black" stroke-width="1.01672" stroke-miterlimit="10"/>
<path d="M16.9549 20.3617H19.2974V13.627H16.9549C16.1741 13.627 15.5884 14.2126 15.5884 14.9934V18.8976C15.4908 19.6785 16.1741 20.3617 16.9549 20.3617Z" stroke="black" stroke-width="1.01672" stroke-miterlimit="10"/>
<path d="M42.5294 20.3608V20.9465C42.5294 22.313 41.8462 23.4842 40.8701 24.1675" stroke="black" stroke-width="1.01672" stroke-miterlimit="10" stroke-linecap="round" stroke-linejoin="round"/>
</g>
</g>
<defs>
<clipPath id="clip0_1_787">
<rect width="60" height="58.97" fill="white" transform="translate(0 0.157227)"/>
</clipPath>
<clipPath id="clip1_1_787">
<rect width="60" height="58.97" fill="white" transform="translate(0 0.157227)"/>
</clipPath>
</defs>
</svg>
