<svg width="200" height="200" viewBox="0 0 200 200" fill="none" xmlns="http://www.w3.org/2000/svg">
<path d="M105.501 20.4546L56.6473 118.353H99.2539L105.648 110.531L112.062 118.353H154.281L105.501 20.4546ZM93.8334 89.572L96.3862 84.9291H114.537L117.055 89.9405L105.658 102.818L93.8334 89.572ZM108.944 106.704L123.243 90.3728L116.657 79.4953H94.1384L87.6406 90.3483L102.338 106.699L96.5387 113.366H64.7731L64.8764 113.17L105.461 31.3027L146.101 113.351H114.812L108.944 106.704Z" fill="#C3AE57"/>
<path d="M13.2308 165.995C12.9364 166.657 12.6604 167.098 12.4028 167.318C12.1452 167.502 11.7405 167.594 11.1885 167.594H10.1949C9.8269 167.594 9.5509 167.539 9.36691 167.428C9.18291 167.318 9.09091 167.134 9.09091 166.877C9.09091 166.73 9.18291 166.436 9.36691 165.995L25.5401 131.039C25.8345 130.378 26.0921 129.827 26.3129 129.385C26.5705 128.944 26.7729 128.669 26.9201 128.558C27.0673 128.411 27.2513 128.338 27.4721 128.338C27.6561 128.338 27.8217 128.411 27.9689 128.558C28.1161 128.669 28.3001 128.944 28.5209 129.385C28.7785 129.827 29.0545 130.378 29.3489 131.039L45.6325 165.995C45.8165 166.436 45.9085 166.73 45.9085 166.877C45.9085 167.134 45.8165 167.318 45.6325 167.428C45.4485 167.539 45.1725 167.594 44.8045 167.594H43.6453C43.0933 167.594 42.6885 167.502 42.431 167.318C42.1734 167.098 41.8974 166.657 41.603 165.995L27.4169 135.009L13.2308 165.995Z" fill="#1D266D"/>
<path d="M54.6846 166.491C54.6846 166.932 54.5926 167.226 54.4086 167.373C54.2615 167.52 53.9855 167.594 53.5807 167.594H52.2007C51.7959 167.594 51.5015 167.52 51.3175 167.373C51.1703 167.226 51.0967 166.932 51.0967 166.491V130.102C51.0967 129.661 51.1703 129.367 51.3175 129.22C51.5015 129.073 51.7959 129 52.2007 129H61.7501C66.8284 129 70.6003 129.992 73.0658 131.977C75.5682 133.925 76.8193 136.755 76.8193 140.468C76.8193 143.224 76.1018 145.485 74.6666 147.249C73.2682 148.977 71.3179 150.208 68.8155 150.943L78.8617 165.995C79.1929 166.473 79.3585 166.84 79.3585 167.098C79.3585 167.281 79.2481 167.41 79.0273 167.484C78.8433 167.557 78.5489 167.594 78.1441 167.594H76.7641C76.2122 167.594 75.789 167.52 75.4946 167.373C75.237 167.19 74.9058 166.785 74.501 166.16L63.7372 149.73C63.5532 149.436 63.4612 149.197 63.4612 149.013C63.4612 148.866 63.498 148.775 63.5716 148.738C63.682 148.664 63.866 148.609 64.1236 148.572C66.9204 148.352 69.0915 147.617 70.6371 146.367C72.2194 145.08 73.0106 143.132 73.0106 140.523C73.0106 137.729 72.017 135.708 70.0299 134.458C68.0427 133.171 65.1908 132.528 61.4741 132.528H55.2366C54.8686 132.528 54.6846 132.712 54.6846 133.079V166.491Z" fill="#1D266D"/>
<path d="M105.708 164.065C106.112 164.065 106.388 164.139 106.536 164.286C106.72 164.433 106.812 164.727 106.812 165.168V166.491C106.812 166.932 106.72 167.226 106.536 167.373C106.388 167.52 106.112 167.594 105.708 167.594H85.8913C85.4865 167.594 85.1921 167.52 85.0081 167.373C84.861 167.226 84.7874 166.932 84.7874 166.491V130.102C84.7874 129.661 84.861 129.367 85.0081 129.22C85.1921 129.073 85.4865 129 85.8913 129H105.652C106.057 129 106.333 129.073 106.48 129.22C106.664 129.367 106.756 129.661 106.756 130.102V131.425C106.756 131.867 106.664 132.161 106.48 132.308C106.333 132.455 106.057 132.528 105.652 132.528H88.9273C88.5593 132.528 88.3753 132.712 88.3753 133.079V145.871C88.3753 146.238 88.5593 146.422 88.9273 146.422H103.776C104.181 146.422 104.457 146.496 104.604 146.643C104.788 146.79 104.88 147.084 104.88 147.525V148.793C104.88 149.234 104.788 149.528 104.604 149.675C104.457 149.822 104.181 149.896 103.776 149.896H88.9273C88.5593 149.896 88.3753 150.079 88.3753 150.447V163.514C88.3753 163.881 88.5593 164.065 88.9273 164.065H105.708Z" fill="#1D266D"/>
<path d="M145.327 151.274C145.327 154.95 144.665 158.056 143.34 160.592C142.015 163.128 140.194 165.021 137.875 166.271C135.557 167.52 132.907 168.145 129.927 168.145C127.019 168.145 124.443 167.539 122.199 166.326C119.991 165.113 118.243 163.275 116.955 160.812C115.667 158.313 115.023 155.207 115.023 151.494V130.102C115.023 129.661 115.096 129.367 115.244 129.22C115.428 129.073 115.722 129 116.127 129H117.507C117.912 129 118.188 129.073 118.335 129.22C118.519 129.367 118.611 129.661 118.611 130.102V151.329C118.611 154.086 119.052 156.457 119.936 158.441C120.819 160.426 122.125 161.952 123.855 163.018C125.584 164.084 127.663 164.617 130.092 164.617C132.521 164.617 134.6 164.084 136.33 163.018C138.096 161.952 139.439 160.445 140.359 158.497C141.279 156.512 141.739 154.159 141.739 151.439V130.102C141.739 129.661 141.813 129.367 141.96 129.22C142.144 129.073 142.438 129 142.843 129H144.223C144.628 129 144.904 129.073 145.051 129.22C145.235 129.367 145.327 129.661 145.327 130.102V151.274Z" fill="#1D266D"/>
<path d="M159.045 166.491C159.045 166.932 158.953 167.226 158.769 167.373C158.622 167.52 158.346 167.594 157.941 167.594H156.561C156.156 167.594 155.862 167.52 155.678 167.373C155.53 167.226 155.457 166.932 155.457 166.491V130.102C155.457 129.551 155.53 129.147 155.678 128.889C155.825 128.595 156.082 128.448 156.45 128.448C156.745 128.448 157.021 128.558 157.278 128.779C157.536 129 157.922 129.422 158.438 130.047L173.562 149.069L188.466 130.047C188.981 129.422 189.367 129 189.625 128.779C189.882 128.558 190.158 128.448 190.453 128.448C190.821 128.448 191.078 128.595 191.226 128.889C191.373 129.147 191.446 129.551 191.446 130.102V166.491C191.446 166.932 191.354 167.226 191.17 167.373C191.023 167.52 190.747 167.594 190.342 167.594H188.962C188.558 167.594 188.263 167.52 188.079 167.373C187.932 167.226 187.859 166.932 187.859 166.491V136.553L175.328 152.266C174.85 152.891 174.482 153.314 174.224 153.534C174.004 153.718 173.746 153.81 173.452 153.81C173.157 153.81 172.881 153.718 172.624 153.534C172.403 153.314 172.053 152.891 171.575 152.266L159.045 136.553V166.491Z" fill="#1D266D"/>
<path d="M107.963 176.131C107.963 176.099 107.969 176.079 107.979 176.068C107.992 176.058 108.013 176.053 108.041 176.053H108.682C108.996 176.053 109.243 176.11 109.425 176.224C109.606 176.338 109.697 176.516 109.697 176.759C109.697 176.928 109.659 177.059 109.584 177.155C109.511 177.248 109.404 177.32 109.261 177.369C109.422 177.4 109.548 177.468 109.638 177.574C109.729 177.678 109.774 177.816 109.774 177.99C109.774 178.264 109.681 178.463 109.494 178.587C109.311 178.709 109.044 178.77 108.694 178.77H108.041C108.013 178.77 107.992 178.765 107.979 178.754C107.969 178.744 107.963 178.723 107.963 178.692V176.131ZM108.255 176.301C108.229 176.301 108.216 176.314 108.216 176.34V177.241C108.216 177.266 108.229 177.279 108.255 177.279H108.741C108.969 177.279 109.14 177.238 109.254 177.155C109.37 177.072 109.428 176.95 109.428 176.786C109.428 176.621 109.364 176.499 109.234 176.422C109.105 176.341 108.914 176.301 108.663 176.301H108.255ZM108.694 178.521C108.886 178.521 109.041 178.505 109.16 178.471C109.279 178.435 109.368 178.379 109.425 178.304C109.482 178.226 109.51 178.124 109.51 177.997C109.51 177.827 109.445 177.705 109.316 177.633C109.186 177.56 108.994 177.524 108.741 177.524H108.255C108.229 177.524 108.216 177.537 108.216 177.563V178.483C108.216 178.509 108.229 178.521 108.255 178.521H108.694Z" fill="#1D266D"/>
<path d="M111.878 176.142C111.901 176.103 111.921 176.079 111.936 176.068C111.954 176.058 111.983 176.053 112.022 176.053H112.115C112.136 176.053 112.151 176.057 112.162 176.065C112.175 176.07 112.181 176.079 112.181 176.092C112.181 176.107 112.176 176.124 112.166 176.142L111.202 177.734V178.692C111.202 178.723 111.195 178.744 111.182 178.754C111.172 178.765 111.153 178.77 111.124 178.77H111.027C110.998 178.77 110.978 178.765 110.965 178.754C110.954 178.744 110.949 178.723 110.949 178.692V177.753L109.986 176.142C109.973 176.121 109.966 176.105 109.966 176.092C109.966 176.066 109.989 176.053 110.036 176.053H110.137C110.176 176.053 110.203 176.058 110.219 176.068C110.237 176.079 110.258 176.103 110.281 176.142L111.077 177.501L111.878 176.142Z" fill="#1D266D"/>
<path d="M114.305 176.014C114.616 176.014 114.9 176.112 115.156 176.309C115.182 176.327 115.195 176.345 115.195 176.363C115.195 176.376 115.186 176.393 115.168 176.414L115.098 176.499C115.08 176.525 115.063 176.538 115.048 176.538C115.03 176.538 115.01 176.529 114.989 176.511C114.881 176.433 114.769 176.372 114.655 176.328C114.544 176.285 114.425 176.263 114.298 176.263C114.184 176.263 114.083 176.282 113.995 176.321C113.907 176.36 113.838 176.416 113.789 176.492C113.739 176.564 113.715 176.651 113.715 176.752C113.715 176.852 113.738 176.935 113.785 177C113.834 177.065 113.905 177.118 113.998 177.159C114.092 177.201 114.219 177.242 114.379 177.283C114.579 177.335 114.738 177.393 114.857 177.458C114.976 177.52 115.066 177.598 115.125 177.691C115.185 177.784 115.215 177.899 115.215 178.036C115.215 178.189 115.173 178.324 115.09 178.44C115.007 178.556 114.894 178.647 114.748 178.712C114.603 178.776 114.439 178.809 114.255 178.809C114.087 178.809 113.927 178.779 113.777 178.719C113.629 178.657 113.493 178.575 113.369 178.471C113.343 178.453 113.33 178.435 113.33 178.417C113.33 178.401 113.339 178.383 113.357 178.362L113.431 178.273C113.449 178.25 113.466 178.238 113.482 178.238C113.492 178.238 113.509 178.247 113.532 178.265C113.776 178.462 114.02 178.56 114.267 178.56C114.404 178.56 114.523 178.54 114.624 178.498C114.728 178.457 114.807 178.399 114.861 178.324C114.918 178.246 114.947 178.155 114.947 178.052C114.947 177.956 114.925 177.878 114.881 177.819C114.839 177.757 114.77 177.704 114.675 177.66C114.581 177.613 114.449 177.568 114.278 177.524C114.089 177.475 113.935 177.422 113.816 177.365C113.699 177.308 113.609 177.232 113.544 177.136C113.479 177.04 113.447 176.917 113.447 176.767C113.447 176.614 113.484 176.481 113.559 176.367C113.637 176.253 113.741 176.167 113.87 176.107C114 176.045 114.145 176.014 114.305 176.014Z" fill="#1D266D"/>
<path d="M117.829 178.692C117.829 178.723 117.822 178.744 117.809 178.754C117.799 178.765 117.779 178.77 117.751 178.77H117.654C117.625 178.77 117.605 178.765 117.592 178.754C117.581 178.744 117.576 178.723 117.576 178.692V177.532C117.576 177.506 117.563 177.493 117.537 177.493H116.065C116.039 177.493 116.026 177.506 116.026 177.532V178.692C116.026 178.723 116.019 178.744 116.006 178.754C115.996 178.765 115.976 178.77 115.948 178.77H115.851C115.822 178.77 115.802 178.765 115.789 178.754C115.778 178.744 115.773 178.723 115.773 178.692V176.131C115.773 176.099 115.778 176.079 115.789 176.068C115.802 176.058 115.822 176.053 115.851 176.053H115.948C115.976 176.053 115.996 176.058 116.006 176.068C116.019 176.079 116.026 176.099 116.026 176.131V177.21C116.026 177.235 116.039 177.248 116.065 177.248H117.537C117.563 177.248 117.576 177.235 117.576 177.21V176.131C117.576 176.099 117.581 176.079 117.592 176.068C117.605 176.058 117.625 176.053 117.654 176.053H117.751C117.779 176.053 117.799 176.058 117.809 176.068C117.822 176.079 117.829 176.099 117.829 176.131V178.692Z" fill="#1D266D"/>
<path d="M118.811 178.692C118.811 178.723 118.805 178.744 118.792 178.754C118.781 178.765 118.762 178.77 118.733 178.77H118.636C118.608 178.77 118.587 178.765 118.574 178.754C118.564 178.744 118.558 178.723 118.558 178.692V176.131C118.558 176.099 118.564 176.079 118.574 176.068C118.587 176.058 118.608 176.053 118.636 176.053H119.308C119.666 176.053 119.931 176.123 120.105 176.263C120.281 176.4 120.369 176.599 120.369 176.86C120.369 177.054 120.319 177.213 120.218 177.338C120.119 177.459 119.982 177.546 119.806 177.598L120.513 178.657C120.536 178.691 120.548 178.717 120.548 178.735C120.548 178.748 120.54 178.757 120.525 178.762C120.512 178.767 120.491 178.77 120.463 178.77H120.365C120.327 178.77 120.297 178.765 120.276 178.754C120.258 178.741 120.235 178.713 120.206 178.669L119.448 177.512C119.435 177.492 119.429 177.475 119.429 177.462C119.429 177.452 119.431 177.445 119.437 177.442C119.444 177.437 119.457 177.433 119.476 177.431C119.672 177.415 119.825 177.364 119.934 177.276C120.045 177.185 120.101 177.048 120.101 176.864C120.101 176.667 120.031 176.525 119.891 176.437C119.751 176.347 119.551 176.301 119.289 176.301H118.85C118.824 176.301 118.811 176.314 118.811 176.34V178.692Z" fill="#1D266D"/>
<path d="M122.403 178.521C122.431 178.521 122.451 178.527 122.461 178.537C122.474 178.547 122.481 178.568 122.481 178.599V178.692C122.481 178.723 122.474 178.744 122.461 178.754C122.451 178.765 122.431 178.77 122.403 178.77H121.008C120.979 178.77 120.959 178.765 120.946 178.754C120.935 178.744 120.93 178.723 120.93 178.692V176.131C120.93 176.099 120.935 176.079 120.946 176.068C120.959 176.058 120.979 176.053 121.008 176.053H122.399C122.428 176.053 122.447 176.058 122.457 176.068C122.47 176.079 122.477 176.099 122.477 176.131V176.224C122.477 176.255 122.47 176.275 122.457 176.286C122.447 176.296 122.428 176.301 122.399 176.301H121.222C121.196 176.301 121.183 176.314 121.183 176.34V177.241C121.183 177.266 121.196 177.279 121.222 177.279H122.267C122.295 177.279 122.315 177.285 122.325 177.295C122.338 177.305 122.345 177.326 122.345 177.357V177.446C122.345 177.477 122.338 177.498 122.325 177.508C122.315 177.519 122.295 177.524 122.267 177.524H121.222C121.196 177.524 121.183 177.537 121.183 177.563V178.483C121.183 178.509 121.196 178.521 121.222 178.521H122.403Z" fill="#1D266D"/>
<path d="M124.547 178.521C124.575 178.521 124.595 178.527 124.605 178.537C124.618 178.547 124.625 178.568 124.625 178.599V178.692C124.625 178.723 124.618 178.744 124.605 178.754C124.595 178.765 124.575 178.77 124.547 178.77H123.152C123.123 178.77 123.103 178.765 123.09 178.754C123.079 178.744 123.074 178.723 123.074 178.692V176.131C123.074 176.099 123.079 176.079 123.09 176.068C123.103 176.058 123.123 176.053 123.152 176.053H124.543C124.572 176.053 124.591 176.058 124.601 176.068C124.614 176.079 124.621 176.099 124.621 176.131V176.224C124.621 176.255 124.614 176.275 124.601 176.286C124.591 176.296 124.572 176.301 124.543 176.301H123.366C123.34 176.301 123.327 176.314 123.327 176.34V177.241C123.327 177.266 123.34 177.279 123.366 177.279H124.411C124.439 177.279 124.459 177.285 124.469 177.295C124.482 177.305 124.489 177.326 124.489 177.357V177.446C124.489 177.477 124.482 177.498 124.469 177.508C124.459 177.519 124.439 177.524 124.411 177.524H123.366C123.34 177.524 123.327 177.537 123.327 177.563V178.483C123.327 178.509 123.34 178.521 123.366 178.521H124.547Z" fill="#1D266D"/>
<path d="M126.541 178.692C126.541 178.723 126.535 178.744 126.522 178.754C126.511 178.765 126.492 178.77 126.463 178.77H126.366C126.338 178.77 126.317 178.765 126.304 178.754C126.294 178.744 126.288 178.723 126.288 178.692V176.131C126.288 176.099 126.294 176.079 126.304 176.068C126.317 176.058 126.338 176.053 126.366 176.053H126.463C126.492 176.053 126.511 176.058 126.522 176.068C126.535 176.079 126.541 176.099 126.541 176.131V178.692ZM127.765 176.142C127.799 176.103 127.825 176.079 127.843 176.068C127.863 176.058 127.893 176.053 127.932 176.053H128.045C128.091 176.053 128.115 176.065 128.115 176.088C128.115 176.098 128.104 176.116 128.084 176.142L126.961 177.4L128.103 178.673C128.126 178.696 128.138 178.717 128.138 178.735C128.138 178.758 128.113 178.77 128.064 178.77H127.936C127.897 178.77 127.867 178.765 127.847 178.754C127.826 178.741 127.8 178.718 127.769 178.684L126.696 177.473C126.673 177.45 126.661 177.428 126.661 177.408C126.661 177.387 126.674 177.364 126.7 177.338L127.765 176.142Z" fill="#1D266D"/>
<path d="M128.795 178.692C128.795 178.723 128.789 178.744 128.776 178.754C128.765 178.765 128.746 178.77 128.717 178.77H128.62C128.592 178.77 128.571 178.765 128.558 178.754C128.548 178.744 128.543 178.723 128.543 178.692V176.131C128.543 176.099 128.548 176.079 128.558 176.068C128.571 176.058 128.592 176.053 128.62 176.053H129.292C129.65 176.053 129.916 176.123 130.089 176.263C130.265 176.4 130.353 176.599 130.353 176.86C130.353 177.054 130.303 177.213 130.202 177.338C130.103 177.459 129.966 177.546 129.79 177.598L130.497 178.657C130.52 178.691 130.532 178.717 130.532 178.735C130.532 178.748 130.524 178.757 130.509 178.762C130.496 178.767 130.475 178.77 130.447 178.77H130.349C130.311 178.77 130.281 178.765 130.26 178.754C130.242 178.741 130.219 178.713 130.19 178.669L129.432 177.512C129.419 177.492 129.413 177.475 129.413 177.462C129.413 177.452 129.416 177.445 129.421 177.442C129.428 177.437 129.441 177.433 129.46 177.431C129.656 177.415 129.809 177.364 129.918 177.276C130.029 177.185 130.085 177.048 130.085 176.864C130.085 176.667 130.015 176.525 129.875 176.437C129.735 176.347 129.535 176.301 129.273 176.301H128.834C128.808 176.301 128.795 176.314 128.795 176.34V178.692Z" fill="#1D266D"/>
<path d="M131.167 178.692C131.167 178.723 131.16 178.744 131.147 178.754C131.137 178.765 131.118 178.77 131.089 178.77H130.992C130.963 178.77 130.943 178.765 130.93 178.754C130.919 178.744 130.914 178.723 130.914 178.692V176.131C130.914 176.099 130.919 176.079 130.93 176.068C130.943 176.058 130.963 176.053 130.992 176.053H131.089C131.118 176.053 131.137 176.058 131.147 176.068C131.16 176.079 131.167 176.099 131.167 176.131V178.692Z" fill="#1D266D"/>
<path d="M132.585 176.014C132.896 176.014 133.179 176.112 133.436 176.309C133.462 176.327 133.475 176.345 133.475 176.363C133.475 176.376 133.466 176.393 133.448 176.414L133.378 176.499C133.359 176.525 133.343 176.538 133.327 176.538C133.309 176.538 133.29 176.529 133.269 176.511C133.16 176.433 133.049 176.372 132.935 176.328C132.823 176.285 132.704 176.263 132.577 176.263C132.463 176.263 132.362 176.282 132.274 176.321C132.186 176.36 132.117 176.416 132.068 176.492C132.019 176.564 131.994 176.651 131.994 176.752C131.994 176.852 132.018 176.935 132.064 177C132.113 177.065 132.185 177.118 132.278 177.159C132.371 177.201 132.498 177.242 132.659 177.283C132.858 177.335 133.018 177.393 133.137 177.458C133.256 177.52 133.345 177.598 133.405 177.691C133.464 177.784 133.494 177.899 133.494 178.036C133.494 178.189 133.453 178.324 133.37 178.44C133.287 178.556 133.173 178.647 133.028 178.712C132.883 178.776 132.718 178.809 132.534 178.809C132.366 178.809 132.207 178.779 132.056 178.719C131.909 178.657 131.773 178.575 131.648 178.471C131.622 178.453 131.61 178.435 131.61 178.417C131.61 178.401 131.619 178.383 131.637 178.362L131.711 178.273C131.729 178.25 131.746 178.238 131.761 178.238C131.771 178.238 131.788 178.247 131.812 178.265C132.055 178.462 132.3 178.56 132.546 178.56C132.683 178.56 132.802 178.54 132.904 178.498C133.007 178.457 133.086 178.399 133.141 178.324C133.198 178.246 133.226 178.155 133.226 178.052C133.226 177.956 133.204 177.878 133.16 177.819C133.119 177.757 133.05 177.704 132.954 177.66C132.861 177.613 132.729 177.568 132.558 177.524C132.369 177.475 132.214 177.422 132.095 177.365C131.979 177.308 131.888 177.232 131.823 177.136C131.758 177.04 131.726 176.917 131.726 176.767C131.726 176.614 131.764 176.481 131.839 176.367C131.917 176.253 132.02 176.167 132.15 176.107C132.279 176.045 132.424 176.014 132.585 176.014Z" fill="#1D266D"/>
<path d="M136.108 178.692C136.108 178.723 136.102 178.744 136.089 178.754C136.078 178.765 136.059 178.77 136.03 178.77H135.933C135.905 178.77 135.884 178.765 135.871 178.754C135.861 178.744 135.856 178.723 135.856 178.692V177.532C135.856 177.506 135.843 177.493 135.817 177.493H134.344C134.318 177.493 134.305 177.506 134.305 177.532V178.692C134.305 178.723 134.299 178.744 134.286 178.754C134.275 178.765 134.256 178.77 134.227 178.77H134.13C134.102 178.77 134.081 178.765 134.068 178.754C134.058 178.744 134.053 178.723 134.053 178.692V176.131C134.053 176.099 134.058 176.079 134.068 176.068C134.081 176.058 134.102 176.053 134.13 176.053H134.227C134.256 176.053 134.275 176.058 134.286 176.068C134.299 176.079 134.305 176.099 134.305 176.131V177.21C134.305 177.235 134.318 177.248 134.344 177.248H135.817C135.843 177.248 135.856 177.235 135.856 177.21V176.131C135.856 176.099 135.861 176.079 135.871 176.068C135.884 176.058 135.905 176.053 135.933 176.053H136.03C136.059 176.053 136.078 176.058 136.089 176.068C136.102 176.079 136.108 176.099 136.108 176.131V178.692Z" fill="#1D266D"/>
<path d="M138.719 176.131C138.719 176.099 138.724 176.079 138.734 176.068C138.747 176.058 138.768 176.053 138.796 176.053H138.894C138.922 176.053 138.941 176.058 138.952 176.068C138.965 176.079 138.971 176.099 138.971 176.131V178.692C138.971 178.734 138.965 178.763 138.952 178.782C138.939 178.8 138.921 178.809 138.897 178.809C138.877 178.809 138.856 178.801 138.835 178.785C138.817 178.77 138.79 178.739 138.754 178.692L137.09 176.577V178.692C137.09 178.723 137.084 178.744 137.071 178.754C137.061 178.765 137.041 178.77 137.013 178.77H136.916C136.887 178.77 136.866 178.765 136.853 178.754C136.843 178.744 136.838 178.723 136.838 178.692V176.131C136.838 176.089 136.844 176.059 136.857 176.041C136.87 176.023 136.888 176.014 136.912 176.014C136.932 176.014 136.952 176.022 136.97 176.037C136.991 176.053 137.019 176.084 137.055 176.131L138.719 178.246V176.131Z" fill="#1D266D"/>
<path d="M139.629 178.657C139.608 178.704 139.589 178.735 139.571 178.75C139.553 178.763 139.524 178.77 139.485 178.77H139.415C139.389 178.77 139.37 178.766 139.357 178.758C139.344 178.75 139.338 178.738 139.338 178.719C139.338 178.709 139.344 178.688 139.357 178.657L140.496 176.197C140.516 176.15 140.535 176.111 140.55 176.08C140.568 176.049 140.582 176.03 140.593 176.022C140.603 176.012 140.616 176.006 140.632 176.006C140.645 176.006 140.656 176.012 140.667 176.022C140.677 176.03 140.69 176.049 140.705 176.08C140.724 176.111 140.743 176.15 140.764 176.197L141.91 178.657C141.923 178.688 141.93 178.709 141.93 178.719C141.93 178.738 141.923 178.75 141.91 178.758C141.897 178.766 141.878 178.77 141.852 178.77H141.77C141.731 178.77 141.703 178.763 141.685 178.75C141.667 178.735 141.647 178.704 141.626 178.657L140.628 176.476L139.629 178.657Z" fill="#1D266D"/>
<path d="M145.588 178.483C145.588 178.509 145.584 178.529 145.576 178.545C145.568 178.558 145.553 178.569 145.529 178.58C145.224 178.732 144.896 178.809 144.546 178.809C144.305 178.809 144.081 178.752 143.874 178.638C143.669 178.521 143.505 178.358 143.38 178.149C143.256 177.939 143.194 177.699 143.194 177.427C143.194 177.147 143.257 176.9 143.384 176.686C143.511 176.471 143.681 176.305 143.893 176.189C144.108 176.072 144.344 176.014 144.601 176.014C144.782 176.014 144.954 176.044 145.117 176.103C145.283 176.163 145.427 176.238 145.549 176.328C145.575 176.347 145.588 176.365 145.588 176.383C145.588 176.398 145.58 176.416 145.564 176.437L145.498 176.519C145.483 176.539 145.466 176.55 145.448 176.55C145.432 176.55 145.413 176.542 145.389 176.526C145.273 176.446 145.147 176.383 145.013 176.336C144.878 176.287 144.737 176.263 144.589 176.263C144.371 176.263 144.177 176.312 144.006 176.41C143.835 176.508 143.7 176.645 143.602 176.821C143.506 176.995 143.458 177.193 143.458 177.415C143.458 177.64 143.509 177.841 143.61 178.017C143.713 178.19 143.849 178.325 144.018 178.421C144.189 178.514 144.373 178.56 144.57 178.56C144.707 178.56 144.832 178.55 144.946 178.529C145.06 178.506 145.172 178.472 145.281 178.428C145.304 178.418 145.318 178.409 145.323 178.401C145.331 178.391 145.335 178.377 145.335 178.358V177.602C145.335 177.571 145.34 177.55 145.351 177.539C145.364 177.529 145.384 177.524 145.413 177.524H145.51C145.538 177.524 145.558 177.529 145.568 177.539C145.581 177.55 145.588 177.571 145.588 177.602V178.483Z" fill="#1D266D"/>
<path d="M147.706 178.521C147.735 178.521 147.754 178.527 147.765 178.537C147.778 178.547 147.784 178.568 147.784 178.599V178.692C147.784 178.723 147.778 178.744 147.765 178.754C147.754 178.765 147.735 178.77 147.706 178.77H146.311C146.283 178.77 146.262 178.765 146.249 178.754C146.239 178.744 146.234 178.723 146.234 178.692V176.131C146.234 176.099 146.239 176.079 146.249 176.068C146.262 176.058 146.283 176.053 146.311 176.053H147.703C147.731 176.053 147.751 176.058 147.761 176.068C147.774 176.079 147.78 176.099 147.78 176.131V176.224C147.78 176.255 147.774 176.275 147.761 176.286C147.751 176.296 147.731 176.301 147.703 176.301H146.525C146.499 176.301 146.486 176.314 146.486 176.34V177.241C146.486 177.266 146.499 177.279 146.525 177.279H147.57C147.599 177.279 147.618 177.285 147.629 177.295C147.642 177.305 147.648 177.326 147.648 177.357V177.446C147.648 177.477 147.642 177.498 147.629 177.508C147.618 177.519 147.599 177.524 147.57 177.524H146.525C146.499 177.524 146.486 177.537 146.486 177.563V178.483C146.486 178.509 146.499 178.521 146.525 178.521H147.706Z" fill="#1D266D"/>
<path d="M148.63 178.692C148.63 178.723 148.624 178.744 148.611 178.754C148.601 178.765 148.581 178.77 148.553 178.77H148.456C148.427 178.77 148.406 178.765 148.393 178.754C148.383 178.744 148.378 178.723 148.378 178.692V176.131C148.378 176.092 148.383 176.063 148.393 176.045C148.404 176.024 148.422 176.014 148.448 176.014C148.468 176.014 148.488 176.022 148.506 176.037C148.524 176.053 148.551 176.083 148.588 176.127L149.652 177.466L150.702 176.127C150.738 176.083 150.765 176.053 150.783 176.037C150.801 176.022 150.821 176.014 150.841 176.014C150.867 176.014 150.885 176.024 150.896 176.045C150.906 176.063 150.911 176.092 150.911 176.131V178.692C150.911 178.723 150.905 178.744 150.892 178.754C150.882 178.765 150.862 178.77 150.834 178.77H150.737C150.708 178.77 150.687 178.765 150.674 178.754C150.664 178.744 150.659 178.723 150.659 178.692V176.585L149.777 177.691C149.743 177.735 149.717 177.765 149.699 177.78C149.683 177.793 149.665 177.8 149.645 177.8C149.624 177.8 149.604 177.793 149.586 177.78C149.571 177.765 149.546 177.735 149.512 177.691L148.63 176.585V178.692Z" fill="#1D266D"/>
<path d="M152.329 176.014C152.64 176.014 152.924 176.112 153.18 176.309C153.206 176.327 153.219 176.345 153.219 176.363C153.219 176.376 153.21 176.393 153.192 176.414L153.122 176.499C153.104 176.525 153.087 176.538 153.071 176.538C153.053 176.538 153.034 176.529 153.013 176.511C152.904 176.433 152.793 176.372 152.679 176.328C152.567 176.285 152.448 176.263 152.321 176.263C152.207 176.263 152.106 176.282 152.018 176.321C151.93 176.36 151.862 176.416 151.812 176.492C151.763 176.564 151.738 176.651 151.738 176.752C151.738 176.852 151.762 176.935 151.808 177C151.858 177.065 151.929 177.118 152.022 177.159C152.115 177.201 152.242 177.242 152.403 177.283C152.602 177.335 152.762 177.393 152.881 177.458C153 177.52 153.089 177.598 153.149 177.691C153.209 177.784 153.238 177.899 153.238 178.036C153.238 178.189 153.197 178.324 153.114 178.44C153.031 178.556 152.917 178.647 152.772 178.712C152.627 178.776 152.463 178.809 152.279 178.809C152.11 178.809 151.951 178.779 151.801 178.719C151.653 178.657 151.517 178.575 151.393 178.471C151.367 178.453 151.354 178.435 151.354 178.417C151.354 178.401 151.363 178.383 151.381 178.362L151.455 178.273C151.473 178.25 151.49 178.238 151.505 178.238C151.516 178.238 151.533 178.247 151.556 178.265C151.799 178.462 152.044 178.56 152.29 178.56C152.428 178.56 152.547 178.54 152.648 178.498C152.751 178.457 152.83 178.399 152.885 178.324C152.942 178.246 152.97 178.155 152.97 178.052C152.97 177.956 152.948 177.878 152.904 177.819C152.863 177.757 152.794 177.704 152.698 177.66C152.605 177.613 152.473 177.568 152.302 177.524C152.113 177.475 151.959 177.422 151.839 177.365C151.723 177.308 151.632 177.232 151.567 177.136C151.503 177.04 151.47 176.917 151.47 176.767C151.47 176.614 151.508 176.481 151.583 176.367C151.661 176.253 151.764 176.167 151.894 176.107C152.023 176.045 152.168 176.014 152.329 176.014Z" fill="#1D266D"/>
<path d="M154.793 178.657C154.772 178.704 154.753 178.735 154.735 178.75C154.717 178.763 154.688 178.77 154.649 178.77H154.579C154.553 178.77 154.534 178.766 154.521 178.758C154.508 178.75 154.502 178.738 154.502 178.719C154.502 178.709 154.508 178.688 154.521 178.657L155.66 176.197C155.68 176.15 155.698 176.111 155.714 176.08C155.732 176.049 155.746 176.03 155.757 176.022C155.767 176.012 155.78 176.006 155.796 176.006C155.809 176.006 155.82 176.012 155.831 176.022C155.841 176.03 155.854 176.049 155.869 176.08C155.888 176.111 155.907 176.15 155.928 176.197L157.074 178.657C157.087 178.688 157.093 178.709 157.093 178.719C157.093 178.738 157.087 178.75 157.074 178.758C157.061 178.766 157.042 178.77 157.016 178.77H156.934C156.895 178.77 156.867 178.763 156.849 178.75C156.831 178.735 156.811 178.704 156.79 178.657L155.792 176.476L154.793 178.657Z" fill="#1D266D"/>
<path d="M159.339 176.131C159.339 176.099 159.345 176.079 159.355 176.068C159.368 176.058 159.389 176.053 159.417 176.053H159.514C159.543 176.053 159.562 176.058 159.573 176.068C159.586 176.079 159.592 176.099 159.592 176.131V178.692C159.592 178.734 159.586 178.763 159.573 178.782C159.56 178.8 159.542 178.809 159.518 178.809C159.497 178.809 159.477 178.801 159.456 178.785C159.438 178.77 159.411 178.739 159.374 178.692L157.711 176.577V178.692C157.711 178.723 157.705 178.744 157.692 178.754C157.681 178.765 157.662 178.77 157.634 178.77H157.536C157.508 178.77 157.487 178.765 157.474 178.754C157.464 178.744 157.459 178.723 157.459 178.692V176.131C157.459 176.089 157.465 176.059 157.478 176.041C157.491 176.023 157.509 176.014 157.533 176.014C157.553 176.014 157.573 176.022 157.591 176.037C157.612 176.053 157.64 176.084 157.676 176.131L159.339 178.246V176.131Z" fill="#1D266D"/>
<path d="M160.324 176.131C160.324 176.099 160.329 176.079 160.339 176.068C160.352 176.058 160.373 176.053 160.401 176.053H161.14C161.435 176.053 161.693 176.109 161.913 176.22C162.133 176.328 162.303 176.484 162.422 176.686C162.541 176.885 162.601 177.116 162.601 177.38C162.601 177.66 162.539 177.904 162.414 178.114C162.293 178.324 162.118 178.485 161.89 178.599C161.662 178.713 161.396 178.77 161.093 178.77H160.401C160.373 178.77 160.352 178.765 160.339 178.754C160.329 178.744 160.324 178.723 160.324 178.692V176.131ZM160.615 176.301C160.589 176.301 160.576 176.314 160.576 176.34V178.483C160.576 178.509 160.589 178.521 160.615 178.521H161.105C161.361 178.521 161.581 178.476 161.765 178.386C161.949 178.295 162.091 178.166 162.189 177.997C162.287 177.827 162.337 177.626 162.337 177.396C162.337 177.176 162.287 176.984 162.189 176.821C162.093 176.656 161.953 176.528 161.769 176.437C161.585 176.347 161.369 176.301 161.12 176.301H160.615Z" fill="#1D266D"/>
<path d="M163.626 179.344C163.629 179.321 163.635 179.304 163.646 179.294C163.656 179.286 163.67 179.282 163.688 179.282C163.704 179.282 163.73 179.285 163.766 179.29C163.8 179.295 163.832 179.298 163.863 179.298C163.993 179.298 164.092 179.245 164.162 179.139C164.235 179.035 164.271 178.882 164.271 178.681V176.131C164.271 176.099 164.276 176.079 164.287 176.068C164.3 176.058 164.32 176.053 164.349 176.053H164.446C164.475 176.053 164.494 176.058 164.504 176.068C164.517 176.079 164.524 176.099 164.524 176.131V178.7C164.524 178.982 164.468 179.193 164.357 179.333C164.248 179.475 164.086 179.546 163.871 179.546C163.78 179.546 163.713 179.54 163.669 179.527C163.646 179.522 163.63 179.512 163.622 179.5C163.615 179.489 163.612 179.471 163.615 179.445L163.626 179.344Z" fill="#1D266D"/>
<path d="M166.711 178.521C166.739 178.521 166.759 178.527 166.769 178.537C166.782 178.547 166.788 178.568 166.788 178.599V178.692C166.788 178.723 166.782 178.744 166.769 178.754C166.759 178.765 166.739 178.77 166.711 178.77H165.316C165.287 178.77 165.266 178.765 165.254 178.754C165.243 178.744 165.238 178.723 165.238 178.692V176.131C165.238 176.099 165.243 176.079 165.254 176.068C165.266 176.058 165.287 176.053 165.316 176.053H166.707C166.735 176.053 166.755 176.058 166.765 176.068C166.778 176.079 166.785 176.099 166.785 176.131V176.224C166.785 176.255 166.778 176.275 166.765 176.286C166.755 176.296 166.735 176.301 166.707 176.301H165.529C165.504 176.301 165.491 176.314 165.491 176.34V177.241C165.491 177.266 165.504 177.279 165.529 177.279H166.575C166.603 177.279 166.623 177.285 166.633 177.295C166.646 177.305 166.652 177.326 166.652 177.357V177.446C166.652 177.477 166.646 177.498 166.633 177.508C166.623 177.519 166.603 177.524 166.575 177.524H165.529C165.504 177.524 165.491 177.537 165.491 177.563V178.483C165.491 178.509 165.504 178.521 165.529 178.521H166.711Z" fill="#1D266D"/>
<path d="M168.325 178.618C168.299 178.694 168.276 178.745 168.255 178.774C168.237 178.802 168.215 178.816 168.189 178.816C168.163 178.816 168.14 178.802 168.119 178.774C168.101 178.745 168.077 178.69 168.046 178.607L167.117 176.165C167.109 176.142 167.105 176.124 167.105 176.111C167.105 176.09 167.112 176.076 167.125 176.068C167.138 176.058 167.158 176.053 167.187 176.053H167.272C167.311 176.053 167.338 176.061 167.354 176.076C167.369 176.089 167.386 176.119 167.404 176.165L168.189 178.292L168.831 176.375C168.851 176.308 168.871 176.263 168.889 176.239C168.907 176.216 168.929 176.204 168.955 176.204C168.981 176.204 169.003 176.216 169.021 176.239C169.039 176.263 169.059 176.308 169.079 176.375L169.713 178.281L170.498 176.165C170.516 176.119 170.533 176.089 170.548 176.076C170.564 176.061 170.591 176.053 170.63 176.053H170.707C170.736 176.053 170.757 176.058 170.77 176.068C170.783 176.076 170.789 176.09 170.789 176.111C170.789 176.124 170.785 176.142 170.777 176.165L169.849 178.607C169.818 178.69 169.792 178.745 169.771 178.774C169.753 178.802 169.731 178.816 169.705 178.816C169.679 178.816 169.656 178.802 169.635 178.774C169.617 178.745 169.595 178.694 169.569 178.618L168.947 176.783L168.325 178.618Z" fill="#1D266D"/>
<path d="M172.65 178.521C172.678 178.521 172.697 178.527 172.708 178.537C172.721 178.547 172.727 178.568 172.727 178.599V178.692C172.727 178.723 172.721 178.744 172.708 178.754C172.697 178.765 172.678 178.77 172.65 178.77H171.255C171.226 178.77 171.205 178.765 171.192 178.754C171.182 178.744 171.177 178.723 171.177 178.692V176.131C171.177 176.099 171.182 176.079 171.192 176.068C171.205 176.058 171.226 176.053 171.255 176.053H172.646C172.674 176.053 172.694 176.058 172.704 176.068C172.717 176.079 172.723 176.099 172.723 176.131V176.224C172.723 176.255 172.717 176.275 172.704 176.286C172.694 176.296 172.674 176.301 172.646 176.301H171.468C171.442 176.301 171.429 176.314 171.429 176.34V177.241C171.429 177.266 171.442 177.279 171.468 177.279H172.514C172.542 177.279 172.561 177.285 172.572 177.295C172.585 177.305 172.591 177.326 172.591 177.357V177.446C172.591 177.477 172.585 177.498 172.572 177.508C172.561 177.519 172.542 177.524 172.514 177.524H171.468C171.442 177.524 171.429 177.537 171.429 177.563V178.483C171.429 178.509 171.442 178.521 171.468 178.521H172.65Z" fill="#1D266D"/>
<path d="M173.573 178.483C173.573 178.509 173.586 178.521 173.612 178.521H174.832C174.861 178.521 174.88 178.527 174.891 178.537C174.904 178.547 174.91 178.568 174.91 178.599V178.692C174.91 178.723 174.904 178.744 174.891 178.754C174.88 178.765 174.861 178.77 174.832 178.77H173.399C173.37 178.77 173.349 178.765 173.336 178.754C173.326 178.744 173.321 178.723 173.321 178.692V176.131C173.321 176.099 173.326 176.079 173.336 176.068C173.349 176.058 173.37 176.053 173.399 176.053H173.496C173.524 176.053 173.544 176.058 173.554 176.068C173.567 176.079 173.573 176.099 173.573 176.131V178.483Z" fill="#1D266D"/>
<path d="M175.683 178.483C175.683 178.509 175.696 178.521 175.722 178.521H176.942C176.971 178.521 176.99 178.527 177.001 178.537C177.014 178.547 177.02 178.568 177.02 178.599V178.692C177.02 178.723 177.014 178.744 177.001 178.754C176.99 178.765 176.971 178.77 176.942 178.77H175.508C175.48 178.77 175.459 178.765 175.446 178.754C175.436 178.744 175.431 178.723 175.431 178.692V176.131C175.431 176.099 175.436 176.079 175.446 176.068C175.459 176.058 175.48 176.053 175.508 176.053H175.606C175.634 176.053 175.654 176.058 175.664 176.068C175.677 176.079 175.683 176.099 175.683 176.131V178.483Z" fill="#1D266D"/>
<path d="M179.013 178.521C179.042 178.521 179.061 178.527 179.072 178.537C179.085 178.547 179.091 178.568 179.091 178.599V178.692C179.091 178.723 179.085 178.744 179.072 178.754C179.061 178.765 179.042 178.77 179.013 178.77H177.618C177.59 178.77 177.569 178.765 177.556 178.754C177.546 178.744 177.541 178.723 177.541 178.692V176.131C177.541 176.099 177.546 176.079 177.556 176.068C177.569 176.058 177.59 176.053 177.618 176.053H179.009C179.038 176.053 179.057 176.058 179.068 176.068C179.081 176.079 179.087 176.099 179.087 176.131V176.224C179.087 176.255 179.081 176.275 179.068 176.286C179.057 176.296 179.038 176.301 179.009 176.301H177.832C177.806 176.301 177.793 176.314 177.793 176.34V177.241C177.793 177.266 177.806 177.279 177.832 177.279H178.877C178.906 177.279 178.925 177.285 178.936 177.295C178.949 177.305 178.955 177.326 178.955 177.357V177.446C178.955 177.477 178.949 177.498 178.936 177.508C178.925 177.519 178.906 177.524 178.877 177.524H177.832C177.806 177.524 177.793 177.537 177.793 177.563V178.483C177.793 178.509 177.806 178.521 177.832 178.521H179.013Z" fill="#1D266D"/>
<path d="M179.937 178.692C179.937 178.723 179.931 178.744 179.918 178.754C179.907 178.765 179.888 178.77 179.86 178.77H179.762C179.734 178.77 179.713 178.765 179.7 178.754C179.69 178.744 179.685 178.723 179.685 178.692V176.131C179.685 176.099 179.69 176.079 179.7 176.068C179.713 176.058 179.734 176.053 179.762 176.053H180.435C180.792 176.053 181.058 176.123 181.231 176.263C181.407 176.4 181.495 176.599 181.495 176.86C181.495 177.054 181.445 177.213 181.344 177.338C181.246 177.459 181.108 177.546 180.932 177.598L181.639 178.657C181.663 178.691 181.674 178.717 181.674 178.735C181.674 178.748 181.666 178.757 181.651 178.762C181.638 178.767 181.617 178.77 181.589 178.77H181.492C181.453 178.77 181.423 178.765 181.402 178.754C181.384 178.741 181.361 178.713 181.332 178.669L180.575 177.512C180.562 177.492 180.555 177.475 180.555 177.462C180.555 177.452 180.558 177.445 180.563 177.442C180.571 177.437 180.584 177.433 180.602 177.431C180.799 177.415 180.951 177.364 181.06 177.276C181.172 177.185 181.227 177.048 181.227 176.864C181.227 176.667 181.157 176.525 181.018 176.437C180.878 176.347 180.677 176.301 180.415 176.301H179.976C179.95 176.301 179.937 176.314 179.937 176.34V178.692Z" fill="#1D266D"/>
<path d="M183.66 176.142C183.683 176.103 183.703 176.079 183.718 176.068C183.736 176.058 183.765 176.053 183.804 176.053H183.897C183.918 176.053 183.933 176.057 183.944 176.065C183.957 176.07 183.963 176.079 183.963 176.092C183.963 176.107 183.958 176.124 183.947 176.142L182.984 177.734V178.692C182.984 178.723 182.977 178.744 182.964 178.754C182.954 178.765 182.935 178.77 182.906 178.77H182.809C182.78 178.77 182.76 178.765 182.747 178.754C182.736 178.744 182.731 178.723 182.731 178.692V177.753L181.768 176.142C181.755 176.121 181.748 176.105 181.748 176.092C181.748 176.066 181.771 176.053 181.818 176.053H181.919C181.958 176.053 181.985 176.058 182.001 176.068C182.019 176.079 182.04 176.103 182.063 176.142L182.859 177.501L183.66 176.142Z" fill="#1D266D"/>
<path d="M185.652 178.483C185.652 178.509 185.665 178.521 185.691 178.521H186.911C186.94 178.521 186.959 178.527 186.97 178.537C186.982 178.547 186.989 178.568 186.989 178.599V178.692C186.989 178.723 186.982 178.744 186.97 178.754C186.959 178.765 186.94 178.77 186.911 178.77H185.477C185.449 178.77 185.428 178.765 185.415 178.754C185.405 178.744 185.4 178.723 185.4 178.692V176.131C185.4 176.099 185.405 176.079 185.415 176.068C185.428 176.058 185.449 176.053 185.477 176.053H185.574C185.603 176.053 185.622 176.058 185.633 176.068C185.646 176.079 185.652 176.099 185.652 176.131V178.483Z" fill="#1D266D"/>
<path d="M187.762 178.483C187.762 178.509 187.775 178.521 187.801 178.521H189.021C189.05 178.521 189.069 178.527 189.079 178.537C189.092 178.547 189.099 178.568 189.099 178.599V178.692C189.099 178.723 189.092 178.744 189.079 178.754C189.069 178.765 189.05 178.77 189.021 178.77H187.587C187.559 178.77 187.538 178.765 187.525 178.754C187.515 178.744 187.51 178.723 187.51 178.692V176.131C187.51 176.099 187.515 176.079 187.525 176.068C187.538 176.058 187.559 176.053 187.587 176.053H187.684C187.713 176.053 187.732 176.058 187.743 176.068C187.756 176.079 187.762 176.099 187.762 176.131V178.483Z" fill="#1D266D"/>
<path d="M189.911 177.792C189.885 177.792 189.872 177.805 189.872 177.831V178.692C189.872 178.723 189.866 178.744 189.853 178.754C189.842 178.765 189.823 178.77 189.794 178.77H189.697C189.669 178.77 189.648 178.765 189.635 178.754C189.625 178.744 189.619 178.723 189.619 178.692V176.131C189.619 176.099 189.625 176.079 189.635 176.068C189.648 176.058 189.669 176.053 189.697 176.053H190.369C190.727 176.053 190.992 176.127 191.166 176.274C191.342 176.419 191.43 176.629 191.43 176.903C191.43 177.089 191.387 177.248 191.302 177.38C191.219 177.512 191.095 177.615 190.929 177.687C190.766 177.757 190.566 177.792 190.331 177.792H189.911ZM189.911 176.301C189.885 176.301 189.872 176.314 189.872 176.34V177.505C189.872 177.53 189.885 177.543 189.911 177.543H190.35C190.601 177.543 190.799 177.492 190.944 177.388C191.09 177.285 191.162 177.127 191.162 176.915C191.162 176.7 191.092 176.545 190.952 176.449C190.812 176.35 190.612 176.301 190.35 176.301H189.911Z" fill="#1D266D"/>
</svg>
