<svg width="40" height="23" viewBox="0 0 40 23" fill="none" xmlns="http://www.w3.org/2000/svg">
<mask id="mask0_7148_200" style="mask-type:luminance" maskUnits="userSpaceOnUse" x="0" y="0" width="40" height="23">
<path d="M39.8105 0H0.810547V23H39.8105V0Z" fill="white"/>
</mask>
<g mask="url(#mask0_7148_200)">
<path d="M35.8105 0.5H4.81055C2.87755 0.5 1.31055 2.067 1.31055 4V19C1.31055 20.933 2.87755 22.5 4.81055 22.5H35.8105C37.7435 22.5 39.3105 20.933 39.3105 19V4C39.3105 2.067 37.7435 0.5 35.8105 0.5Z" stroke-opacity="0.5"/>
<path d="M10.061 8.05793L7.0293 14.9531H10.6786L11.1277 13.8522H12.1383L12.5874 14.9531H16.5736V14.084L16.9105 14.9531H18.9316L19.2685 14.084V14.9531H27.5777L28.5883 13.8522L29.5427 14.9531H33.8096L30.7779 11.4766L33.8096 8H29.5989L28.6444 9.04293L27.7461 8H18.707L17.921 9.79621L17.135 8H13.4857V8.81121L13.0927 8C13.1489 8.05794 10.061 8.05793 10.061 8.05793ZM10.7348 9.04293H12.4752L14.4963 13.7363V9.04293H16.4052L17.9772 12.4036L19.3808 9.04293H21.2896V14.0261H20.1106V10.1439L18.4263 14.0261H17.4158L15.7315 10.1439V14.0261H13.3173L12.8681 12.9251H10.3979L9.94876 14.0261H8.65745L10.7348 9.04293ZM22.4125 9.04293H27.1847L28.6444 10.6654L30.1603 9.04293H31.62L29.4304 11.5345L31.62 13.9681H30.1041L28.6444 12.3457L27.1285 13.9681H22.4687C22.4125 14.026 22.4125 9.04293 22.4125 9.04293ZM11.633 9.91207L10.847 11.8821H12.4752L11.633 9.91207ZM23.5915 10.0859V11.013H26.1741V11.9981H23.5915V12.9831H26.511L27.8584 11.5345L26.5671 10.0859H23.5915Z" fill="#2C2C2C"/>
</g>
</svg>
