<svg width="40" height="23" viewBox="0 0 40 23" fill="none" xmlns="http://www.w3.org/2000/svg">
<mask id="mask0_7148_192" style="mask-type:luminance" maskUnits="userSpaceOnUse" x="0" y="0" width="40" height="23">
<path d="M39.6094 0H0.609375V23H39.6094V0Z" fill="white"/>
</mask>
<g mask="url(#mask0_7148_192)">
<path d="M35.6094 0.5H4.60938C2.67638 0.5 1.10938 2.067 1.10938 4V19C1.10938 20.933 2.67638 22.5 4.60938 22.5H35.6094C37.5424 22.5 39.1094 20.933 39.1094 19V4C39.1094 2.067 37.5424 0.5 35.6094 0.5Z" stroke-opacity="0.5"/>
<path d="M19.688 15.9188C19.7576 15.9906 19.7576 15.9906 19.8273 16.0625C18.9915 16.6375 17.9469 16.9969 16.9023 16.9969C13.9773 16.9969 11.6094 14.5531 11.6094 11.5344C11.6094 8.51562 13.9773 6 16.9023 6C17.9469 6 18.9915 6.2875 19.8273 6.93438C19.7576 7.00625 19.7576 7.00625 19.688 7.07813C18.4344 8.15625 17.738 9.7375 17.738 11.4625C17.738 13.1875 18.4344 14.7688 19.688 15.9188Z" fill="#2C2C2C"/>
<path d="M23.4523 6C22.4076 6 21.363 6.2875 20.5273 6.93438C20.5969 7.00625 20.5969 7.00625 20.6666 7.07813C21.9201 8.15625 22.6166 9.73751 22.6166 11.4625C22.6166 13.1875 21.9201 14.7687 20.6666 15.9187C20.5969 15.9906 20.5969 15.9906 20.5273 16.0625C21.363 16.6375 22.4076 16.9969 23.4523 16.9969C26.3773 16.9969 28.7451 14.5531 28.7451 11.5344C28.7451 8.44375 26.3773 6 23.4523 6Z" fill="#2C2C2C"/>
<path d="M20.1798 7.17188C20.1102 7.24375 20.0406 7.31563 19.9709 7.31563C18.8566 8.39376 18.1602 9.90313 18.1602 11.4844C18.1602 13.0657 18.8566 14.575 19.9709 15.5813C20.0406 15.6532 20.1102 15.725 20.1798 15.725C20.2495 15.6532 20.3191 15.5813 20.3888 15.5813C21.5727 14.575 22.1995 13.0657 22.1995 11.4844C22.1995 9.90313 21.5031 8.39376 20.3888 7.38751C20.3191 7.31563 20.2495 7.24375 20.1798 7.17188Z" fill="#2C2C2C"/>
</g>
</svg>
