<svg width="40" height="23" viewBox="0 0 40 23" fill="none" xmlns="http://www.w3.org/2000/svg">
<mask id="mask0_7148_168" style="mask-type:luminance" maskUnits="userSpaceOnUse" x="0" y="0" width="40" height="23">
<path d="M39.1992 0H0.199219V23H39.1992V0Z" fill="white"/>
</mask>
<g mask="url(#mask0_7148_168)">
<path d="M35.1992 0.5H4.19922C2.26622 0.5 0.699219 2.067 0.699219 4V19C0.699219 20.933 2.26622 22.5 4.19922 22.5H35.1992C37.1322 22.5 38.6992 20.933 38.6992 19V4C38.6992 2.067 37.1322 0.5 35.1992 0.5Z" stroke-opacity="0.5"/>
<path d="M25.1896 10.6833C25.0734 11.4724 24.4897 11.4724 23.9247 11.4724H23.603L23.8285 9.99981C23.8421 9.91042 23.917 9.84511 24.0042 9.84511H24.1514C24.5362 9.84511 24.899 9.84512 25.0863 10.0711C25.198 10.2064 25.2322 10.4069 25.1896 10.6833ZM24.9443 8.625H22.8142C22.6683 8.625 22.5443 8.73437 22.5217 8.88297L21.6604 14.519C21.6436 14.6303 21.7268 14.7309 21.8353 14.7309H22.9285C23.0305 14.7309 23.117 14.6543 23.1331 14.551L23.3778 12.9524C23.4004 12.8038 23.5244 12.6945 23.6697 12.6945H24.3438C25.7468 12.6945 26.5565 11.9942 26.7683 10.6047C26.8632 9.99779 26.7722 9.5206 26.4965 9.18674C26.1936 8.819 25.6564 8.625 24.9443 8.625Z" fill="#2C2C2C"/>
<path d="M9.99842 10.6833C9.88156 11.4724 9.29794 11.4724 8.73297 11.4724H8.41201L8.63742 9.99981C8.65099 9.91042 8.72516 9.84511 8.81232 9.84511H8.96025C9.34436 9.84511 9.70723 9.84512 9.89447 10.0711C10.0069 10.2064 10.0404 10.4069 9.99842 10.6833ZM9.7525 8.625H7.62234C7.47706 8.625 7.35309 8.73437 7.32977 8.88297L6.46909 14.519C6.45174 14.6303 6.53503 14.7309 6.64414 14.7309H7.661C7.807 14.7309 7.93097 14.6217 7.95357 14.4737L8.18602 12.9524C8.20862 12.8038 8.33259 12.6945 8.47859 12.6945H9.15194C10.555 12.6945 11.3652 11.9942 11.5764 10.6047C11.672 9.99779 11.5803 9.5206 11.3045 9.18674C11.0018 8.819 10.4652 8.625 9.7525 8.625Z" fill="#2C2C2C"/>
<path d="M14.6972 12.707C14.5984 13.3081 14.1361 13.7125 13.546 13.7125C13.2503 13.7125 13.0133 13.6139 12.8609 13.428C12.7098 13.2434 12.6529 12.9809 12.7007 12.689C12.7925 12.0926 13.2631 11.6761 13.8442 11.6761C14.1334 11.6761 14.3685 11.7747 14.5241 11.9627C14.6804 12.1519 14.7417 12.4158 14.6972 12.707ZM16.1183 10.6579H15.0982C15.011 10.6579 14.9367 10.7239 14.9232 10.8132L14.878 11.107L14.807 11.0005C14.5861 10.6699 14.0934 10.5586 13.6022 10.5586C12.4754 10.5586 11.5127 11.4402 11.3255 12.6763C11.2279 13.2927 11.3661 13.8825 11.7051 14.2936C12.0163 14.6714 12.4605 14.8287 12.9895 14.8287C13.8979 14.8287 14.4015 14.2263 14.4015 14.2263L14.3563 14.5188C14.3388 14.6301 14.4221 14.7307 14.5319 14.7307H15.45C15.596 14.7307 15.7193 14.6215 15.7425 14.4729L16.2939 10.8698C16.3107 10.7586 16.2274 10.6579 16.1183 10.6579Z" fill="#2C2C2C"/>
<path d="M29.8885 12.707C29.7898 13.3081 29.3275 13.7125 28.7373 13.7125C28.4416 13.7125 28.2046 13.6139 28.0523 13.428C27.9012 13.2434 27.845 12.9809 27.8928 12.689C27.9844 12.0926 28.4545 11.6761 29.0356 11.6761C29.3255 11.6761 29.5605 11.7747 29.7155 11.9627C29.8718 12.1519 29.9331 12.4158 29.8885 12.707ZM31.3103 10.6579H30.2901C30.203 10.6579 30.1281 10.7239 30.1145 10.8132L30.07 11.107L29.9983 11.0005C29.7775 10.6699 29.2855 10.5586 28.7935 10.5586C27.6668 10.5586 26.7047 11.4402 26.5168 12.6763C26.4193 13.2927 26.5582 13.8825 26.8971 14.2936C27.2084 14.6714 27.6519 14.8287 28.1814 14.8287C29.0898 14.8287 29.5935 14.2263 29.5935 14.2263L29.5476 14.5188C29.5308 14.6301 29.6141 14.7307 29.7232 14.7307H30.6414C30.7873 14.7307 30.9113 14.6215 30.9339 14.4729L31.4853 10.8698C31.5027 10.7586 31.4188 10.6579 31.3103 10.6579Z" fill="#2C2C2C"/>
<path d="M21.551 10.6582H20.5256C20.4281 10.6582 20.3364 10.7089 20.2809 10.7928L18.8669 12.9419L18.2677 10.8761C18.2303 10.7468 18.1147 10.6582 17.9842 10.6582H16.9764C16.855 10.6582 16.7691 10.7821 16.8085 10.9009L17.9371 14.3206L16.8756 15.8666C16.7923 15.9878 16.8763 16.1558 17.0203 16.1558H18.0443C18.1411 16.1558 18.2322 16.1064 18.2877 16.0245L21.6969 10.946C21.7782 10.8247 21.6943 10.6582 21.551 10.6582Z" fill="#2C2C2C"/>
<path d="M32.5126 8.77959L31.639 14.5197C31.6216 14.6303 31.7049 14.7309 31.814 14.7309H32.6934C32.8387 14.7309 32.9626 14.6217 32.9852 14.473L33.8472 8.83691C33.8646 8.7257 33.7813 8.625 33.6722 8.625H32.6882C32.6004 8.625 32.5262 8.69039 32.5126 8.77959Z" fill="#2C2C2C"/>
</g>
</svg>
