<svg width="40" height="23" viewBox="0 0 40 23" fill="none" xmlns="http://www.w3.org/2000/svg" style="outline: none;">
<mask id="mask0_7148_180" style="mask-type:luminance" maskUnits="userSpaceOnUse" x="0" y="0" width="40" height="23">
<path d="M39.4102 0H0.410156V23H39.4102V0Z" fill="white"/>
</mask>
<g mask="url(#mask0_7148_180)">
<path d="M35.4102 0.5H4.41016C2.47716 0.5 0.910156 2.067 0.910156 4V19C0.910156 20.933 2.47716 22.5 4.41016 22.5H35.4102C37.3432 22.5 38.9102 20.933 38.9102 19V4C38.9102 2.067 37.3432 0.5 35.4102 0.5Z" stroke-opacity="0.5"/>
<path d="M17.9546 15.9982H16.0039L17.2165 8.1084H19.1673L17.9546 15.9982Z" fill="#2C2C2C"/>
<path d="M25.1257 8.32648C24.5458 8.10882 23.9658 8 23.3331 8C21.3824 8 20.0116 9.08826 20.0116 10.6118C20.0116 11.7545 21.0133 12.353 21.7514 12.7339C22.4896 13.1148 22.7532 13.3869 22.7532 13.7134C22.7532 14.2575 22.1205 14.4752 21.5933 14.4752C20.9606 14.4752 20.3279 14.3663 19.748 14.0398L19.4843 13.931L19.2207 15.6722C19.9061 15.9443 20.6443 16.1075 21.4351 16.1075C23.4913 16.1075 24.8621 15.0737 24.8621 13.4413C24.8621 12.5707 24.3349 11.8633 23.2277 11.3192C22.5423 10.9383 22.1205 10.7207 22.1205 10.3398C22.0678 10.0133 22.4368 9.63239 23.175 9.63239C23.7022 9.63239 24.1767 9.74121 24.6512 9.95887L24.8094 10.0677L25.1257 8.32648Z" fill="#2C2C2C"/>
<path d="M27.7083 13.2236C27.8665 12.7883 28.4992 11.0471 28.4992 11.0471C28.4992 11.0471 28.6573 10.6118 28.7628 10.2853L28.921 10.9382C28.921 10.9382 29.29 12.8427 29.3955 13.2236H27.7083ZM30.1863 8.16315H28.6573C28.1828 8.10874 27.761 8.3808 27.6029 8.81611L24.6504 16.0531H26.7066L27.1284 14.856H29.6591C29.7118 15.128 29.87 16.0531 29.87 16.0531H31.7153L30.1863 8.16315Z" fill="#2C2C2C"/>
<path d="M14.3174 8.16309L12.4193 13.4956L12.2084 12.4073C11.7339 10.9926 10.7322 9.84989 9.4668 9.14252L11.2594 16.053H13.3684L16.479 8.16309H14.3174Z" fill="#2C2C2C"/>
<path d="M10.6262 8.16315H7.46288L7.41016 8.32639C9.88814 8.97935 11.5225 10.5573 12.2079 12.4618L11.5225 8.81611C11.4171 8.3808 11.048 8.10874 10.6262 8.16315Z" fill="#2C2C2C"/>
</g>
</svg>
